<mxfile host="app.diagrams.net" modified="2022-10-23T03:43:51.723Z" agent="5.0 (Macintosh; Intel Mac OS X 10_15_7) AppleWebKit/537.36 (KHTML, like Gecko) Chrome/103.0.5060.114 Safari/537.36" etag="Qsy206QoJCPUrIe47C4P" version="20.4.2" type="github">
  <diagram id="QCJK3GoZey0fLzVgRwON" name="Page-1">
    <mxGraphModel dx="872" dy="518" grid="0" gridSize="10" guides="1" tooltips="1" connect="1" arrows="1" fold="1" page="1" pageScale="1" pageWidth="850" pageHeight="1100" math="0" shadow="0">
      <root>
        <mxCell id="0" />
        <mxCell id="1" parent="0" />
        <mxCell id="iYkwQjaNwLjaEjHxsNRi-8" value="" style="edgeStyle=orthogonalEdgeStyle;rounded=0;orthogonalLoop=1;jettySize=auto;html=1;" parent="1" source="_EEXz0VH0YhpJqHSqHq0-1" target="iYkwQjaNwLjaEjHxsNRi-7" edge="1">
          <mxGeometry relative="1" as="geometry" />
        </mxCell>
        <mxCell id="_EEXz0VH0YhpJqHSqHq0-1" value="START" style="rounded=1;whiteSpace=wrap;html=1;" parent="1" vertex="1">
          <mxGeometry x="142.5" y="31" width="93" height="38" as="geometry" />
        </mxCell>
        <mxCell id="_EEXz0VH0YhpJqHSqHq0-11" value="" style="edgeStyle=orthogonalEdgeStyle;rounded=0;orthogonalLoop=1;jettySize=auto;html=1;" parent="1" source="_EEXz0VH0YhpJqHSqHq0-2" target="_EEXz0VH0YhpJqHSqHq0-3" edge="1">
          <mxGeometry relative="1" as="geometry" />
        </mxCell>
        <mxCell id="iYkwQjaNwLjaEjHxsNRi-12" value="" style="edgeStyle=orthogonalEdgeStyle;rounded=0;orthogonalLoop=1;jettySize=auto;html=1;" parent="1" source="_EEXz0VH0YhpJqHSqHq0-2" target="_EEXz0VH0YhpJqHSqHq0-6" edge="1">
          <mxGeometry relative="1" as="geometry" />
        </mxCell>
        <mxCell id="_EEXz0VH0YhpJqHSqHq0-2" value="pilihan&amp;nbsp;= CASE 1" style="rhombus;whiteSpace=wrap;html=1;rounded=0;sketch=0;shadow=0;" parent="1" vertex="1">
          <mxGeometry x="134" y="164" width="110" height="110" as="geometry" />
        </mxCell>
        <mxCell id="_EEXz0VH0YhpJqHSqHq0-12" value="" style="edgeStyle=orthogonalEdgeStyle;rounded=0;orthogonalLoop=1;jettySize=auto;html=1;" parent="1" source="_EEXz0VH0YhpJqHSqHq0-3" target="_EEXz0VH0YhpJqHSqHq0-4" edge="1">
          <mxGeometry relative="1" as="geometry" />
        </mxCell>
        <mxCell id="_EEXz0VH0YhpJqHSqHq0-14" value="" style="edgeStyle=orthogonalEdgeStyle;rounded=0;orthogonalLoop=1;jettySize=auto;html=1;" parent="1" source="_EEXz0VH0YhpJqHSqHq0-3" target="_EEXz0VH0YhpJqHSqHq0-7" edge="1">
          <mxGeometry relative="1" as="geometry" />
        </mxCell>
        <mxCell id="_EEXz0VH0YhpJqHSqHq0-3" value="pilihan&amp;nbsp;=&amp;nbsp;CASE 2" style="rhombus;whiteSpace=wrap;html=1;" parent="1" vertex="1">
          <mxGeometry x="134" y="300" width="110" height="110" as="geometry" />
        </mxCell>
        <mxCell id="_EEXz0VH0YhpJqHSqHq0-13" value="" style="edgeStyle=orthogonalEdgeStyle;rounded=0;orthogonalLoop=1;jettySize=auto;html=1;" parent="1" source="_EEXz0VH0YhpJqHSqHq0-4" target="_EEXz0VH0YhpJqHSqHq0-8" edge="1">
          <mxGeometry relative="1" as="geometry" />
        </mxCell>
        <mxCell id="_EEXz0VH0YhpJqHSqHq0-4" value="DEFAULT" style="rhombus;whiteSpace=wrap;html=1;" parent="1" vertex="1">
          <mxGeometry x="134" y="435" width="110" height="110" as="geometry" />
        </mxCell>
        <mxCell id="_EEXz0VH0YhpJqHSqHq0-17" value="" style="edgeStyle=orthogonalEdgeStyle;rounded=0;orthogonalLoop=1;jettySize=auto;html=1;" parent="1" source="_EEXz0VH0YhpJqHSqHq0-6" target="_EEXz0VH0YhpJqHSqHq0-9" edge="1">
          <mxGeometry relative="1" as="geometry" />
        </mxCell>
        <mxCell id="_EEXz0VH0YhpJqHSqHq0-6" value="PROSES 1&lt;br&gt;break" style="shape=process;whiteSpace=wrap;html=1;backgroundOutline=1;" parent="1" vertex="1">
          <mxGeometry x="277" y="189" width="120" height="60" as="geometry" />
        </mxCell>
        <mxCell id="_EEXz0VH0YhpJqHSqHq0-16" value="" style="edgeStyle=orthogonalEdgeStyle;rounded=0;orthogonalLoop=1;jettySize=auto;html=1;" parent="1" source="_EEXz0VH0YhpJqHSqHq0-7" target="_EEXz0VH0YhpJqHSqHq0-9" edge="1">
          <mxGeometry relative="1" as="geometry" />
        </mxCell>
        <mxCell id="_EEXz0VH0YhpJqHSqHq0-7" value="PROSES 2&lt;br&gt;break" style="shape=process;whiteSpace=wrap;html=1;backgroundOutline=1;" parent="1" vertex="1">
          <mxGeometry x="277" y="325" width="120" height="60" as="geometry" />
        </mxCell>
        <mxCell id="_EEXz0VH0YhpJqHSqHq0-18" value="" style="edgeStyle=orthogonalEdgeStyle;rounded=0;orthogonalLoop=1;jettySize=auto;html=1;" parent="1" source="_EEXz0VH0YhpJqHSqHq0-8" target="_EEXz0VH0YhpJqHSqHq0-9" edge="1">
          <mxGeometry relative="1" as="geometry" />
        </mxCell>
        <mxCell id="_EEXz0VH0YhpJqHSqHq0-8" value="PROSES DEFAULT&lt;br&gt;break" style="shape=process;whiteSpace=wrap;html=1;backgroundOutline=1;" parent="1" vertex="1">
          <mxGeometry x="277" y="460" width="120" height="60" as="geometry" />
        </mxCell>
        <mxCell id="_EEXz0VH0YhpJqHSqHq0-9" value="END" style="rounded=1;whiteSpace=wrap;html=1;" parent="1" vertex="1">
          <mxGeometry x="429" y="335.5" width="77.5" height="39" as="geometry" />
        </mxCell>
        <mxCell id="iYkwQjaNwLjaEjHxsNRi-1" value="YA" style="text;html=1;strokeColor=none;fillColor=none;align=center;verticalAlign=middle;whiteSpace=wrap;rounded=0;" parent="1" vertex="1">
          <mxGeometry x="223" y="189" width="60" height="30" as="geometry" />
        </mxCell>
        <mxCell id="iYkwQjaNwLjaEjHxsNRi-2" value="TIDAK" style="text;html=1;strokeColor=none;fillColor=none;align=center;verticalAlign=middle;whiteSpace=wrap;rounded=0;" parent="1" vertex="1">
          <mxGeometry x="184" y="270" width="60" height="30" as="geometry" />
        </mxCell>
        <mxCell id="iYkwQjaNwLjaEjHxsNRi-4" value="TIDAK" style="text;html=1;strokeColor=none;fillColor=none;align=center;verticalAlign=middle;whiteSpace=wrap;rounded=0;" parent="1" vertex="1">
          <mxGeometry x="184" y="405" width="60" height="30" as="geometry" />
        </mxCell>
        <mxCell id="iYkwQjaNwLjaEjHxsNRi-5" value="YA" style="text;html=1;strokeColor=none;fillColor=none;align=center;verticalAlign=middle;whiteSpace=wrap;rounded=0;" parent="1" vertex="1">
          <mxGeometry x="223" y="325" width="60" height="30" as="geometry" />
        </mxCell>
        <mxCell id="iYkwQjaNwLjaEjHxsNRi-6" value="YA" style="text;html=1;strokeColor=none;fillColor=none;align=center;verticalAlign=middle;whiteSpace=wrap;rounded=0;" parent="1" vertex="1">
          <mxGeometry x="223" y="460" width="60" height="30" as="geometry" />
        </mxCell>
        <mxCell id="iYkwQjaNwLjaEjHxsNRi-9" value="" style="edgeStyle=orthogonalEdgeStyle;rounded=0;orthogonalLoop=1;jettySize=auto;html=1;" parent="1" source="iYkwQjaNwLjaEjHxsNRi-7" target="_EEXz0VH0YhpJqHSqHq0-2" edge="1">
          <mxGeometry relative="1" as="geometry" />
        </mxCell>
        <mxCell id="iYkwQjaNwLjaEjHxsNRi-7" value="SWITCH&lt;br&gt;(pilihan)" style="rounded=0;whiteSpace=wrap;html=1;" parent="1" vertex="1">
          <mxGeometry x="129" y="95" width="120" height="43" as="geometry" />
        </mxCell>
        <mxCell id="K1OyMcS3u8yO_e3DXVpw-4" value="" style="edgeStyle=orthogonalEdgeStyle;rounded=0;orthogonalLoop=1;jettySize=auto;html=1;" edge="1" parent="1" source="K1OyMcS3u8yO_e3DXVpw-1" target="K1OyMcS3u8yO_e3DXVpw-2">
          <mxGeometry relative="1" as="geometry" />
        </mxCell>
        <mxCell id="K1OyMcS3u8yO_e3DXVpw-6" style="edgeStyle=orthogonalEdgeStyle;rounded=0;orthogonalLoop=1;jettySize=auto;html=1;" edge="1" parent="1" source="K1OyMcS3u8yO_e3DXVpw-1">
          <mxGeometry relative="1" as="geometry">
            <mxPoint x="588" y="329" as="targetPoint" />
          </mxGeometry>
        </mxCell>
        <mxCell id="K1OyMcS3u8yO_e3DXVpw-1" value="kondisi" style="rhombus;whiteSpace=wrap;html=1;" vertex="1" parent="1">
          <mxGeometry x="548" y="179" width="80" height="80" as="geometry" />
        </mxCell>
        <mxCell id="K1OyMcS3u8yO_e3DXVpw-5" style="edgeStyle=orthogonalEdgeStyle;rounded=0;orthogonalLoop=1;jettySize=auto;html=1;" edge="1" parent="1" source="K1OyMcS3u8yO_e3DXVpw-2" target="K1OyMcS3u8yO_e3DXVpw-1">
          <mxGeometry relative="1" as="geometry" />
        </mxCell>
        <mxCell id="K1OyMcS3u8yO_e3DXVpw-2" value="pernyataan" style="rounded=0;whiteSpace=wrap;html=1;" vertex="1" parent="1">
          <mxGeometry x="678" y="102" width="120" height="38" as="geometry" />
        </mxCell>
        <mxCell id="K1OyMcS3u8yO_e3DXVpw-7" value="" style="endArrow=classic;html=1;rounded=0;" edge="1" parent="1">
          <mxGeometry width="50" height="50" relative="1" as="geometry">
            <mxPoint x="588" y="73" as="sourcePoint" />
            <mxPoint x="588" y="178" as="targetPoint" />
          </mxGeometry>
        </mxCell>
        <mxCell id="K1OyMcS3u8yO_e3DXVpw-8" value="kondisi jika benar&lt;br&gt;(YA)" style="text;html=1;strokeColor=none;fillColor=none;align=center;verticalAlign=middle;whiteSpace=wrap;rounded=0;" vertex="1" parent="1">
          <mxGeometry x="631" y="184" width="95" height="30" as="geometry" />
        </mxCell>
        <mxCell id="K1OyMcS3u8yO_e3DXVpw-9" value="kondisi jika salah&lt;br&gt;(TIDAK)" style="text;html=1;strokeColor=none;fillColor=none;align=center;verticalAlign=middle;whiteSpace=wrap;rounded=0;" vertex="1" parent="1">
          <mxGeometry x="589" y="270" width="99" height="30" as="geometry" />
        </mxCell>
        <mxCell id="K1OyMcS3u8yO_e3DXVpw-20" value="" style="edgeStyle=orthogonalEdgeStyle;rounded=0;orthogonalLoop=1;jettySize=auto;html=1;startArrow=none;" edge="1" parent="1" source="K1OyMcS3u8yO_e3DXVpw-11" target="K1OyMcS3u8yO_e3DXVpw-12">
          <mxGeometry relative="1" as="geometry" />
        </mxCell>
        <mxCell id="K1OyMcS3u8yO_e3DXVpw-10" value="MULAI" style="rounded=1;whiteSpace=wrap;html=1;" vertex="1" parent="1">
          <mxGeometry x="108" y="606" width="90" height="35" as="geometry" />
        </mxCell>
        <mxCell id="K1OyMcS3u8yO_e3DXVpw-21" value="" style="edgeStyle=orthogonalEdgeStyle;rounded=0;orthogonalLoop=1;jettySize=auto;html=1;startArrow=none;" edge="1" parent="1" source="K1OyMcS3u8yO_e3DXVpw-12" target="K1OyMcS3u8yO_e3DXVpw-13">
          <mxGeometry relative="1" as="geometry" />
        </mxCell>
        <mxCell id="K1OyMcS3u8yO_e3DXVpw-22" value="" style="edgeStyle=orthogonalEdgeStyle;rounded=0;orthogonalLoop=1;jettySize=auto;html=1;" edge="1" parent="1" source="K1OyMcS3u8yO_e3DXVpw-13" target="K1OyMcS3u8yO_e3DXVpw-14">
          <mxGeometry relative="1" as="geometry" />
        </mxCell>
        <mxCell id="K1OyMcS3u8yO_e3DXVpw-13" value="masukkan gula kedalam gelas" style="rounded=0;whiteSpace=wrap;html=1;" vertex="1" parent="1">
          <mxGeometry x="68" y="823" width="170" height="50" as="geometry" />
        </mxCell>
        <mxCell id="K1OyMcS3u8yO_e3DXVpw-24" value="" style="edgeStyle=orthogonalEdgeStyle;rounded=0;orthogonalLoop=1;jettySize=auto;html=1;" edge="1" parent="1" source="K1OyMcS3u8yO_e3DXVpw-14" target="K1OyMcS3u8yO_e3DXVpw-16">
          <mxGeometry relative="1" as="geometry">
            <Array as="points">
              <mxPoint x="301" y="929" />
              <mxPoint x="301" y="631" />
            </Array>
          </mxGeometry>
        </mxCell>
        <mxCell id="K1OyMcS3u8yO_e3DXVpw-14" value="masukkan teh celup kedalam gelas" style="rounded=0;whiteSpace=wrap;html=1;" vertex="1" parent="1">
          <mxGeometry x="68" y="902" width="170" height="50" as="geometry" />
        </mxCell>
        <mxCell id="K1OyMcS3u8yO_e3DXVpw-25" value="" style="edgeStyle=orthogonalEdgeStyle;rounded=0;orthogonalLoop=1;jettySize=auto;html=1;" edge="1" parent="1" source="K1OyMcS3u8yO_e3DXVpw-16" target="K1OyMcS3u8yO_e3DXVpw-17">
          <mxGeometry relative="1" as="geometry" />
        </mxCell>
        <mxCell id="K1OyMcS3u8yO_e3DXVpw-16" value="aduk - aduk" style="rounded=0;whiteSpace=wrap;html=1;" vertex="1" parent="1">
          <mxGeometry x="351" y="606" width="170" height="50" as="geometry" />
        </mxCell>
        <mxCell id="K1OyMcS3u8yO_e3DXVpw-26" value="" style="edgeStyle=orthogonalEdgeStyle;rounded=0;orthogonalLoop=1;jettySize=auto;html=1;" edge="1" parent="1" source="K1OyMcS3u8yO_e3DXVpw-17" target="K1OyMcS3u8yO_e3DXVpw-18">
          <mxGeometry relative="1" as="geometry" />
        </mxCell>
        <mxCell id="K1OyMcS3u8yO_e3DXVpw-30" style="edgeStyle=orthogonalEdgeStyle;rounded=0;orthogonalLoop=1;jettySize=auto;html=1;" edge="1" parent="1" source="K1OyMcS3u8yO_e3DXVpw-17" target="K1OyMcS3u8yO_e3DXVpw-16">
          <mxGeometry relative="1" as="geometry">
            <Array as="points">
              <mxPoint x="567" y="759" />
              <mxPoint x="567" y="635" />
            </Array>
          </mxGeometry>
        </mxCell>
        <mxCell id="K1OyMcS3u8yO_e3DXVpw-17" value="gula dan teh&lt;br&gt;bercampur dengan&lt;br&gt;air panas ?" style="rhombus;whiteSpace=wrap;html=1;" vertex="1" parent="1">
          <mxGeometry x="361" y="684" width="150" height="150" as="geometry" />
        </mxCell>
        <mxCell id="K1OyMcS3u8yO_e3DXVpw-27" value="" style="edgeStyle=orthogonalEdgeStyle;rounded=0;orthogonalLoop=1;jettySize=auto;html=1;" edge="1" parent="1" source="K1OyMcS3u8yO_e3DXVpw-18" target="K1OyMcS3u8yO_e3DXVpw-19">
          <mxGeometry relative="1" as="geometry" />
        </mxCell>
        <mxCell id="K1OyMcS3u8yO_e3DXVpw-18" value="teh manis siap dinikmati" style="shape=parallelogram;perimeter=parallelogramPerimeter;whiteSpace=wrap;html=1;fixedSize=1;" vertex="1" parent="1">
          <mxGeometry x="351" y="857" width="170" height="50" as="geometry" />
        </mxCell>
        <mxCell id="K1OyMcS3u8yO_e3DXVpw-19" value="SELESAI" style="rounded=1;whiteSpace=wrap;html=1;" vertex="1" parent="1">
          <mxGeometry x="391" y="934" width="90" height="35" as="geometry" />
        </mxCell>
        <mxCell id="K1OyMcS3u8yO_e3DXVpw-12" value="tuang air panas kedalam gelas" style="rounded=0;whiteSpace=wrap;html=1;" vertex="1" parent="1">
          <mxGeometry x="68" y="748" width="170" height="50" as="geometry" />
        </mxCell>
        <mxCell id="K1OyMcS3u8yO_e3DXVpw-28" value="" style="edgeStyle=orthogonalEdgeStyle;rounded=0;orthogonalLoop=1;jettySize=auto;html=1;endArrow=none;" edge="1" parent="1" source="K1OyMcS3u8yO_e3DXVpw-11" target="K1OyMcS3u8yO_e3DXVpw-12">
          <mxGeometry relative="1" as="geometry">
            <mxPoint x="155" y="723" as="sourcePoint" />
            <mxPoint x="153" y="823" as="targetPoint" />
          </mxGeometry>
        </mxCell>
        <mxCell id="K1OyMcS3u8yO_e3DXVpw-11" value="gelas, sendok, gula,&lt;br&gt;teh celup, air panas" style="shape=parallelogram;perimeter=parallelogramPerimeter;whiteSpace=wrap;html=1;fixedSize=1;" vertex="1" parent="1">
          <mxGeometry x="68" y="670" width="170" height="50" as="geometry" />
        </mxCell>
        <mxCell id="K1OyMcS3u8yO_e3DXVpw-29" value="" style="edgeStyle=orthogonalEdgeStyle;rounded=0;orthogonalLoop=1;jettySize=auto;html=1;endArrow=none;" edge="1" parent="1" source="K1OyMcS3u8yO_e3DXVpw-10" target="K1OyMcS3u8yO_e3DXVpw-11">
          <mxGeometry relative="1" as="geometry">
            <mxPoint x="148" y="641" as="sourcePoint" />
            <mxPoint x="153" y="748" as="targetPoint" />
          </mxGeometry>
        </mxCell>
        <mxCell id="K1OyMcS3u8yO_e3DXVpw-31" value="YA" style="text;html=1;strokeColor=none;fillColor=none;align=center;verticalAlign=middle;whiteSpace=wrap;rounded=0;" vertex="1" parent="1">
          <mxGeometry x="423" y="870" width="60" height="30" as="geometry" />
        </mxCell>
        <mxCell id="K1OyMcS3u8yO_e3DXVpw-32" value="TIDAK" style="text;html=1;strokeColor=none;fillColor=none;align=center;verticalAlign=middle;whiteSpace=wrap;rounded=0;" vertex="1" parent="1">
          <mxGeometry x="506.5" y="768" width="60" height="30" as="geometry" />
        </mxCell>
      </root>
    </mxGraphModel>
  </diagram>
</mxfile>
